# xmcd
#
# Track frame offsets: 
#        150
#        13187
#        23740
#        34817
#        45172
#        55747
#        66237
#        78137
#        88677
#        101097
#        112607
#        124662
#        135742
#        147712
#        156810
#        166437
#        175822
#        187237
#        198610
#        209560
#        218687
#        229727
#        238217
#        249107
#        258690
#        269722
#        277740
#        288000
#
# Disc length: 3972 seconds
#
# Revision: 0
# Processed by: cddbd v1.5.1PL0 Copyright (c) Steve Scherf et al.
# Submitted via: ExactAudioCopy v0.95a4
#
DISCID=960f821c
DTITLE=Various Artist - The 'D' Singles Volume 2 - Disc 2
DYEAR=1900
DGENRE=Country
TTITLE0=Jack Rivers: If You Were Mine
TTITLE1=Jack Rivers: Should Have Known
TTITLE2=The Velvetones: Worried Over You
TTITLE3=The Velvetones: Space Men
TTITLE4=The Velvetones: Hey Girl
TTITLE5=The Velvetones: Time Gives Me Pleasure
TTITLE6=Tommy Hudson: Swanee River Gal
TTITLE7=Tommy Hudson: Band Stand Stomp
TTITLE8=Johnny Forrer: My Blues
TTITLE9=Johnny Forrer: The Real Thing
TTITLE10=Tony Douglas: Geronimo
TTITLE11=Tony Douglas: End Of The Evening
TTITLE12=Tommy Durden: Deep In The Heart Of A Fool
TTITLE13=Tommy Durden: The Bee
TTITLE14=Travelin' Texans: Song Of Blue Love
TTITLE15=Travelin' Texans: Beating On The Bars
TTITLE16=Country Johnny Mathis: I Don't Know How I Can Live
TTITLE17=Country Johnny Mathis: Run Please Run
TTITLE18=Patsy Timmons: Answer To Life To Go
TTITLE19=Patsy Timmons: I've Got It
TTITLE20=William Tell Taylor: I Can't Ever Free My Mind
TTITLE21=William Tell Taylor: Uh Huh
TTITLE22=Tibby Edwards: Memory Of A Lie
TTITLE23=Tibby Edwards: One More Night
TTITLE24=Jean and Glenn Smith: Calendar In Blue
TTITLE25=Jean and Glenn Smith: The Real Thing
TTITLE26=Joe Carson: Time Lock
TTITLE27=Joe Carson: Careless Words
EXTD=
EXTT0=
EXTT1=
EXTT2=
EXTT3=
EXTT4=
EXTT5=
EXTT6=
EXTT7=
EXTT8=
EXTT9=
EXTT10=
EXTT11=
EXTT12=
EXTT13=
EXTT14=
EXTT15=
EXTT16=
EXTT17=
EXTT18=
EXTT19=
EXTT20=
EXTT21=
EXTT22=
EXTT23=
EXTT24=
EXTT25=
EXTT26=
EXTT27=
PLAYORDER=
